<svg id="Layer_1" data-name="Layer 1" xmlns="http://www.w3.org/2000/svg" viewBox="0 0 762.42 293.69"><defs><style>.cls-1{fill:#003f5c;}.cls-11,.cls-12,.cls-13,.cls-14,.cls-2,.cls-6{fill:none;}.cls-11,.cls-14,.cls-15,.cls-18,.cls-2,.cls-20,.cls-6{stroke:#000;}.cls-2{stroke-linecap:round;stroke-miterlimit:2;}.cls-3{font-size:7.61px;}.cls-10,.cls-16,.cls-3{font-family:ArialMT, Arial;}.cls-10,.cls-4{font-size:12px;}.cls-4{font-family:MyriadPro-Regular, Myriad Pro;}.cls-5{font-size:13px;font-family:Arial-BoldMT, Arial;font-weight:700;}.cls-11,.cls-12,.cls-13,.cls-14,.cls-15,.cls-18,.cls-20,.cls-6{stroke-miterlimit:10;}.cls-6{stroke-width:3px;}.cls-7{fill:#644895;}.cls-8{letter-spacing:-0.06em;}.cls-9{fill:#dd1c77;}.cls-11{stroke-width:8px;}.cls-12{stroke:#939393;}.cls-12,.cls-14{stroke-width:4px;}.cls-13{stroke:#aaa9a9;}.cls-13,.cls-15,.cls-18,.cls-20{stroke-width:2px;}.cls-15{fill:#939393;}.cls-16{font-size:11px;}.cls-17{letter-spacing:-0.11em;}.cls-18{fill:lime;}.cls-19{letter-spacing:-0.02em;}.cls-20{fill:#4f4c4d;}</style></defs><rect class="cls-1" x="1.5" y="2.74" width="115.3" height="90.13"/><line class="cls-2" x1="14.85" y1="63.74" x2="27.78" y2="63.74"/><line class="cls-2" x1="27.78" y1="63.74" x2="31.77" y2="51.43"/><line class="cls-2" x1="31.77" y1="51.43" x2="21.31" y2="43.82"/><text class="cls-3" transform="translate(7.89 53.27)">O</text><line class="cls-2" x1="14.85" y1="63.74" x2="12.2" y2="55.56"/><line class="cls-2" x1="13.91" y1="49.21" x2="21.31" y2="43.82"/><text class="cls-3" transform="translate(18.34 32.72)">O</text><line class="cls-2" x1="20.15" y1="44.67" x2="20.15" y2="35.11"/><line class="cls-2" x1="22.48" y1="44.67" x2="22.48" y2="35.11"/><text class="cls-3" transform="translate(40.23 46.62)">N</text><line class="cls-2" x1="31.77" y1="51.43" x2="38.98" y2="47.26"/><line class="cls-2" x1="46.88" y1="47.22" x2="54.16" y2="51.43"/><line class="cls-2" x1="54.16" y1="51.43" x2="65.35" y2="44.96"/><line class="cls-2" x1="65.35" y1="44.96" x2="76.55" y2="51.43"/><text class="cls-3" transform="translate(51.19 66.22)">O</text><line class="cls-2" x1="55.32" y1="50.76" x2="55.32" y2="60.67"/><line class="cls-2" x1="52.99" y1="50.76" x2="52.99" y2="60.67"/><text class="cls-3" transform="translate(73.58 66.22)">O</text><line class="cls-2" x1="77.71" y1="50.76" x2="77.71" y2="60.67"/><line class="cls-2" x1="75.38" y1="50.76" x2="75.38" y2="60.67"/><line class="cls-2" x1="76.55" y1="51.43" x2="87.74" y2="44.96"/><line class="cls-2" x1="87.74" y1="44.96" x2="98.93" y2="51.43"/><line class="cls-2" x1="98.93" y1="51.43" x2="110.13" y2="44.96"/><text class="cls-4" transform="translate(34.27 84.16)">3OC6 HSL</text><text class="cls-5" transform="translate(42.76 17.9)">LuxR</text><rect class="cls-6" x="1.5" y="2.75" width="115.02" height="89.62"/><rect class="cls-7" x="2.53" y="102.66" width="114.38" height="90.12"/><line class="cls-2" x1="15.6" y1="163.01" x2="28.52" y2="163.01"/><line class="cls-2" x1="28.52" y1="163.01" x2="32.52" y2="150.7"/><line class="cls-2" x1="32.52" y1="150.7" x2="22.06" y2="143.1"/><text class="cls-3" transform="translate(8.63 152.54)">O</text><line class="cls-2" x1="15.6" y1="163.01" x2="12.94" y2="154.83"/><line class="cls-2" x1="14.66" y1="148.48" x2="22.06" y2="143.1"/><text class="cls-3" transform="translate(19.09 131.99)">O</text><line class="cls-2" x1="20.9" y1="143.94" x2="20.9" y2="134.38"/><line class="cls-2" x1="23.22" y1="143.94" x2="23.22" y2="134.38"/><text class="cls-3" transform="translate(40.97 145.89)">N</text><line class="cls-2" x1="32.52" y1="150.7" x2="39.73" y2="146.53"/><line class="cls-2" x1="47.62" y1="146.49" x2="54.91" y2="150.7"/><line class="cls-2" x1="54.91" y1="150.7" x2="66.1" y2="144.23"/><line class="cls-2" x1="66.1" y1="144.23" x2="77.29" y2="150.7"/><text class="cls-3" transform="translate(51.94 165.48)">O</text><line class="cls-2" x1="56.07" y1="150.03" x2="56.07" y2="159.95"/><line class="cls-2" x1="53.74" y1="150.03" x2="53.74" y2="159.95"/><text class="cls-3" transform="translate(74.33 165.48)">O</text><line class="cls-2" x1="78.46" y1="150.03" x2="78.46" y2="159.95"/><line class="cls-2" x1="76.13" y1="150.03" x2="76.13" y2="159.95"/><line class="cls-2" x1="77.29" y1="150.7" x2="88.49" y2="144.23"/><line class="cls-2" x1="88.49" y1="144.23" x2="99.68" y2="150.7"/><line class="cls-2" x1="99.68" y1="150.7" x2="110.88" y2="144.23"/><line class="cls-2" x1="110.88" y1="144.23" x2="110.88" y2="131.29"/><line class="cls-2" x1="110.88" y1="131.29" x2="99.68" y2="124.82"/><text class="cls-4" transform="translate(35.01 183.42)">3OC8 HSL</text><text class="cls-5" transform="translate(45.3 117.17)"><tspan class="cls-8">T</tspan><tspan x="7.22" y="0">raR</tspan></text><rect class="cls-6" x="2.25" y="102.66" width="115.02" height="89.62"/><rect class="cls-9" x="2.57" y="202.57" width="114.66" height="90.13"/><line class="cls-2" x1="15.56" y1="262.92" x2="28.49" y2="262.92"/><line class="cls-2" x1="28.49" y1="262.92" x2="32.48" y2="250.61"/><line class="cls-2" x1="32.48" y1="250.61" x2="22.02" y2="243.01"/><text class="cls-3" transform="translate(8.6 252.46)">O</text><line class="cls-2" x1="15.56" y1="262.92" x2="12.91" y2="254.74"/><line class="cls-2" x1="14.62" y1="248.39" x2="22.02" y2="243.01"/><text class="cls-3" transform="translate(19.05 231.92)">O</text><line class="cls-2" x1="20.86" y1="243.85" x2="20.86" y2="234.29"/><line class="cls-2" x1="23.19" y1="243.85" x2="23.19" y2="234.29"/><text class="cls-3" transform="translate(40.93 245.8)">N</text><line class="cls-2" x1="32.48" y1="250.61" x2="39.69" y2="246.44"/><line class="cls-2" x1="47.59" y1="246.4" x2="54.87" y2="250.61"/><line class="cls-2" x1="54.87" y1="250.61" x2="66.06" y2="244.14"/><line class="cls-2" x1="66.06" y1="244.14" x2="77.26" y2="250.61"/><text class="cls-3" transform="translate(51.9 265.4)">O</text><line class="cls-2" x1="56.03" y1="249.94" x2="56.03" y2="259.86"/><line class="cls-2" x1="53.7" y1="249.94" x2="53.7" y2="259.86"/><text class="cls-3" transform="translate(74.28 265.4)">O</text><line class="cls-2" x1="78.42" y1="249.94" x2="78.42" y2="259.86"/><line class="cls-2" x1="76.09" y1="249.94" x2="76.09" y2="259.86"/><line class="cls-2" x1="77.26" y1="250.61" x2="88.45" y2="244.14"/><line class="cls-2" x1="88.45" y1="244.14" x2="99.64" y2="250.61"/><line class="cls-2" x1="99.64" y1="250.61" x2="110.84" y2="244.14"/><line class="cls-2" x1="110.84" y1="244.14" x2="110.84" y2="231.2"/><line class="cls-2" x1="110.84" y1="231.2" x2="99.64" y2="224.73"/><line class="cls-2" x1="99.64" y1="224.73" x2="88.45" y2="231.2"/><line class="cls-2" x1="88.45" y1="231.2" x2="77.26" y2="224.73"/><line class="cls-2" x1="77.26" y1="224.73" x2="66.06" y2="231.2"/><line class="cls-2" x1="66.06" y1="231.2" x2="54.87" y2="224.73"/><text class="cls-4" transform="translate(31.9 283.34)">3OC12 HSL</text><text class="cls-5" transform="translate(43.82 217.08)">LasR</text><rect class="cls-6" x="2.21" y="202.57" width="115.02" height="89.62"/><text class="cls-10" transform="translate(286.52 99.94)">pNS3_3B</text><text class="cls-10" transform="translate(285.19 167.85)">pUC57 ori</text><text class="cls-10" transform="translate(300.34 184.59)">Cm</text><text class="cls-10" transform="translate(319.01 180.6) scale(0.58)">R</text><path class="cls-11" d="M271.44,50.74a57.65,57.65,0,1,0,81.53,0"/><rect x="264.84" y="44.13" width="13.2" height="13.2" transform="translate(43.63 206.79) rotate(-45)"/><rect x="346.37" y="44.13" width="13.2" height="13.2" transform="translate(67.51 264.45) rotate(-45)"/><path class="cls-12" d="M393.89,249.66c0-5.61-5.81-10.17-13-10.17s-13,4.56-13,10.17"/><line class="cls-13" x1="367.93" y1="249.66" x2="393.89" y2="249.66"/><path class="cls-12" d="M203,249.69c0-5.61-5.82-10.17-13-10.17s-13,4.56-13,10.17"/><line class="cls-13" x1="176.99" y1="249.69" x2="202.96" y2="249.69"/><line class="cls-14" x1="146.37" y1="249.66" x2="524.03" y2="249.66"/><rect x="141.75" y="245.04" width="9.24" height="9.24"/><rect x="519.41" y="245.04" width="9.24" height="9.24"/><polyline class="cls-14" points="187 219.18 157.82 219.18 157.34 219.18 157.34 249.18"/><polygon points="184.08 209.21 201.35 219.18 184.08 229.16 184.08 209.21"/><rect class="cls-15" x="219.82" y="234.83" width="50" height="14.83"/><text class="cls-16" transform="translate(153.98 263.57)">P</text><text class="cls-16" transform="translate(161.32 267.23) scale(0.58)">trc</text><text class="cls-16" transform="translate(222.2 263.57)">R-protein</text><text class="cls-16" transform="translate(280.11 263.57)"><tspan class="cls-17">T</tspan><tspan x="5.5" y="0">erminator</tspan></text><line class="cls-14" x1="298.67" y1="239.66" x2="313.67" y2="239.66"/><line class="cls-14" x1="306.17" y1="249.66" x2="306.17" y2="239.66"/><text class="cls-16" transform="translate(345.57 263.57)">P</text><text class="cls-16" transform="translate(352.91 267.23) scale(0.58)">QS</text><rect class="cls-18" x="415.18" y="234.45" width="50" height="14.83"/><text class="cls-16" transform="translate(407.17 263.57)">mNeonGreen</text><text class="cls-16" transform="translate(179.09 263.57)">RBS</text><polyline class="cls-14" points="377.94 219.18 348.76 219.18 348.27 219.18 348.27 249.18"/><polygon points="375.02 209.21 392.29 219.18 375.02 229.16 375.02 209.21"/><text class="cls-5" transform="translate(272.13 11.15)">AH<tspan class="cls-19" x="18.78" y="0">L</tspan><tspan x="26.48" y="0" xml:space="preserve"> receiver</tspan></text><text class="cls-10" transform="translate(635.46 100.89)">pBbA2c</text><text class="cls-10" transform="translate(634.45 168.79)">p15<tspan class="cls-8" x="20.02" y="0">A</tspan><tspan x="27.36" y="0" xml:space="preserve"> ori</tspan></text><text class="cls-10" transform="translate(644.61 185.54)">Cm</text><text class="cls-10" transform="translate(663.28 181.54) scale(0.58)">R</text><path class="cls-11" d="M615.71,51.68a57.65,57.65,0,1,0,81.53,0"/><rect x="609.1" y="45.08" width="13.2" height="13.2" transform="translate(143.79 450.51) rotate(-45)"/><rect x="690.63" y="45.08" width="13.2" height="13.2" transform="translate(167.67 508.16) rotate(-45)"/><path class="cls-12" d="M611.72,250.63c0-5.61-5.81-10.16-13-10.16s-13,4.55-13,10.16"/><line class="cls-13" x1="585.76" y1="250.63" x2="611.72" y2="250.63"/><line class="cls-14" x1="555.14" y1="250.6" x2="757.8" y2="250.6"/><rect x="550.52" y="245.98" width="9.24" height="9.24"/><rect x="753.18" y="245.98" width="9.24" height="9.24"/><polyline class="cls-14" points="595.77 220.13 566.59 220.13 566.1 220.13 566.1 250.13"/><polygon points="592.85 210.16 610.12 220.13 592.85 230.1 592.85 210.16"/><rect class="cls-20" x="628.59" y="235.77" width="50" height="14.83"/><text class="cls-16" transform="translate(562.75 264.51)">P</text><text class="cls-16" transform="translate(570.08 268.18) scale(0.58)">tet</text><text class="cls-16" transform="translate(633.41 264.51)">I-protein</text><text class="cls-16" transform="translate(688.88 264.51)"><tspan class="cls-17">T</tspan><tspan x="5.5" y="0">erminator</tspan></text><line class="cls-14" x1="707.44" y1="240.6" x2="722.44" y2="240.6"/><line class="cls-14" x1="714.94" y1="250.6" x2="714.94" y2="240.6"/><text class="cls-16" transform="translate(587.86 264.51)">RBS</text><text class="cls-5" transform="translate(620.02 11.15)">AH<tspan class="cls-19" x="18.78" y="0">L</tspan><tspan x="26.48" y="0" xml:space="preserve"> sender</tspan></text><line class="cls-14" x1="493.67" y1="238.65" x2="508.67" y2="238.65"/><line class="cls-14" x1="501.17" y1="248.65" x2="501.17" y2="238.65"/></svg>